<?xml version="1.0" encoding="UTF-8" standalone="yes"?>
<!DOCTYPE svg PUBLIC "-//W3C//DTD SVG 1.0//EN" "http://www.w3.org/TR/2001/REC-SVG-20010904/DTD/svg10.dtd">
<svg height="495" width="585" xmlns="http://www.w3.org/2000/svg" xmlns:svg="http://www.w3.org/2000/svg" xmlns:xlink="http://www.w3.org/1999/xlink">
	<polygon points="367.5,461.25 367.5,472.5 519,472.5 519,461.25 " style="fill: none; fill-opacity: 1; stroke: black; stroke-opacity: 1; stroke-width: 1.25" />
	<text font-family="Arial" font-size="11.25" text-anchor="middle" x="367" y="483.75">0.0</text>
	<text font-family="Arial" font-size="11.25" text-anchor="middle" x="517" y="483.75">1.0</text>
	<polygon points="67.5,147.5 67.5,165.5 467.5,165.5 467.5,147.5 " style="fill: #a6cee3; fill-opacity: 1; stroke: black; stroke-opacity: 1; stroke-width: 0" />
	<text font-family="Arial" font-size="10" text-anchor="middle" x="267" y="137.5">NC_000001.11 Region:17.41 (Mb)</text>
	<text font-family="Arial" font-size="10" text-anchor="middle" x="467" y="137.5">End:25.449 (Mb)</text>
	<text font-family="Arial" font-size="10" text-anchor="middle" x="67" y="137.5">Start:8.035 </text>
	<circle cx="67.50" cy="181.50" fill="rgb(231,138,195)" r="4" />
	<text font-family="Arial" font-size="10" transform="rotate(90,67.50,185.50)" x="67.50" y="185.50">rs225130</text>
	<circle cx="117.50" cy="181.50" fill="rgb(231,138,195)" r="4" />
	<text font-family="Arial" font-size="10" transform="rotate(90,117.50,185.50)" x="117.50" y="185.50">rs225131</text>
	<circle cx="167.50" cy="181.50" fill="rgb(231,138,195)" r="4" />
	<text font-family="Arial" font-size="10" transform="rotate(90,167.50,185.50)" x="167.50" y="185.50">rs225132</text>
	<circle cx="217.50" cy="181.50" fill="rgb(231,138,195)" r="4" />
	<text font-family="Arial" font-size="10" transform="rotate(90,217.50,185.50)" x="217.50" y="185.50">rs880315</text>
	<circle cx="267.50" cy="181.50" fill="rgb(231,138,195)" r="4" />
	<text font-family="Arial" font-size="10" transform="rotate(90,267.50,185.50)" x="267.50" y="185.50">rs17367504</text>
	<circle cx="317.50" cy="181.50" fill="rgb(231,138,195)" r="4" />
	<text font-family="Arial" font-size="10" transform="rotate(90,317.50,185.50)" x="317.50" y="185.50">rs2024758</text>
	<circle cx="367.50" cy="181.50" fill="rgb(231,138,195)" r="4" />
	<text font-family="Arial" font-size="10" transform="rotate(90,367.50,185.50)" x="367.50" y="185.50">rs848309</text>
	<circle cx="417.50" cy="181.50" fill="rgb(231,138,195)" r="4" />
	<text font-family="Arial" font-size="10" transform="rotate(90,417.50,185.50)" x="417.50" y="185.50">rs10903129</text>
	<circle cx="467.50" cy="181.50" fill="rgb(231,138,195)" r="4" />
	<text font-family="Arial" font-size="10" transform="rotate(90,467.50,185.50)" x="467.50" y="185.50">rs12027135</text>
	<text font-family="Arial" font-size="11.25" text-anchor="middle" x="442" y="450">D&apos; Color Key</text>
	<polygon points="367.5,461.25 367.5,472.5 369,472.5 369,461.25 " style="fill: rgb(255,255,255); fill-opacity: 1; stroke: black; stroke-opacity: 1; stroke-width: 0" />
	<polygon points="369,461.25 369,472.5 370.5,472.5 370.5,461.25 " style="fill: rgb(254,254,251); fill-opacity: 1; stroke: black; stroke-opacity: 1; stroke-width: 0" />
	<polygon points="370.5,461.25 370.5,472.5 372,472.5 372,461.25 " style="fill: rgb(254,254,247); fill-opacity: 1; stroke: black; stroke-opacity: 1; stroke-width: 0" />
	<polygon points="372,461.25 372,472.5 373.5,472.5 373.5,461.25 " style="fill: rgb(254,253,244); fill-opacity: 1; stroke: black; stroke-opacity: 1; stroke-width: 0" />
	<polygon points="373.5,461.25 373.5,472.5 375,472.5 375,461.25 " style="fill: rgb(253,253,240); fill-opacity: 1; stroke: black; stroke-opacity: 1; stroke-width: 0" />
	<polygon points="375,461.25 375,472.5 376.5,472.5 376.5,461.25 " style="fill: rgb(253,253,237); fill-opacity: 1; stroke: black; stroke-opacity: 1; stroke-width: 0" />
	<polygon points="376.5,461.25 376.5,472.5 378,472.5 378,461.25 " style="fill: rgb(253,252,233); fill-opacity: 1; stroke: black; stroke-opacity: 1; stroke-width: 0" />
	<polygon points="378,461.25 378,472.5 379.5,472.5 379.5,461.25 " style="fill: rgb(252,252,229); fill-opacity: 1; stroke: black; stroke-opacity: 1; stroke-width: 0" />
	<polygon points="379.5,461.25 379.5,472.5 381,472.5 381,461.25 " style="fill: rgb(252,251,226); fill-opacity: 1; stroke: black; stroke-opacity: 1; stroke-width: 0" />
	<polygon points="381,461.25 381,472.5 382.5,472.5 382.5,461.25 " style="fill: rgb(252,251,222); fill-opacity: 1; stroke: black; stroke-opacity: 1; stroke-width: 0" />
	<polygon points="382.5,461.25 382.5,472.5 384,472.5 384,461.25 " style="fill: rgb(252,251,219); fill-opacity: 1; stroke: black; stroke-opacity: 1; stroke-width: 0" />
	<polygon points="384,461.25 384,472.5 385.5,472.5 385.5,461.25 " style="fill: rgb(251,250,215); fill-opacity: 1; stroke: black; stroke-opacity: 1; stroke-width: 0" />
	<polygon points="385.5,461.25 385.5,472.5 387,472.5 387,461.25 " style="fill: rgb(251,250,211); fill-opacity: 1; stroke: black; stroke-opacity: 1; stroke-width: 0" />
	<polygon points="387,461.25 387,472.5 388.5,472.5 388.5,461.25 " style="fill: rgb(251,249,208); fill-opacity: 1; stroke: black; stroke-opacity: 1; stroke-width: 0" />
	<polygon points="388.5,461.25 388.5,472.5 390,472.5 390,461.25 " style="fill: rgb(250,249,204); fill-opacity: 1; stroke: black; stroke-opacity: 1; stroke-width: 0" />
	<polygon points="390,461.25 390,472.5 391.5,472.5 391.5,461.25 " style="fill: rgb(250,249,201); fill-opacity: 1; stroke: black; stroke-opacity: 1; stroke-width: 0" />
	<polygon points="391.5,461.25 391.5,472.5 393,472.5 393,461.25 " style="fill: rgb(250,248,197); fill-opacity: 1; stroke: black; stroke-opacity: 1; stroke-width: 0" />
	<polygon points="393,461.25 393,472.5 394.5,472.5 394.5,461.25 " style="fill: rgb(249,248,193); fill-opacity: 1; stroke: black; stroke-opacity: 1; stroke-width: 0" />
	<polygon points="394.5,461.25 394.5,472.5 396,472.5 396,461.25 " style="fill: rgb(249,247,190); fill-opacity: 1; stroke: black; stroke-opacity: 1; stroke-width: 0" />
	<polygon points="396,461.25 396,472.5 397.5,472.5 397.5,461.25 " style="fill: rgb(249,247,186); fill-opacity: 1; stroke: black; stroke-opacity: 1; stroke-width: 0" />
	<polygon points="397.5,461.25 397.5,472.5 399,472.5 399,461.25 " style="fill: rgb(249,247,183); fill-opacity: 1; stroke: black; stroke-opacity: 1; stroke-width: 0" />
	<polygon points="399,461.25 399,472.5 400.5,472.5 400.5,461.25 " style="fill: rgb(248,246,179); fill-opacity: 1; stroke: black; stroke-opacity: 1; stroke-width: 0" />
	<polygon points="400.5,461.25 400.5,472.5 402,472.5 402,461.25 " style="fill: rgb(248,246,175); fill-opacity: 1; stroke: black; stroke-opacity: 1; stroke-width: 0" />
	<polygon points="402,461.25 402,472.5 403.5,472.5 403.5,461.25 " style="fill: rgb(248,245,172); fill-opacity: 1; stroke: black; stroke-opacity: 1; stroke-width: 0" />
	<polygon points="403.5,461.25 403.5,472.5 405,472.5 405,461.25 " style="fill: rgb(247,245,168); fill-opacity: 1; stroke: black; stroke-opacity: 1; stroke-width: 0" />
	<polygon points="405,461.25 405,472.5 406.5,472.5 406.5,461.25 " style="fill: rgb(247,245,165); fill-opacity: 1; stroke: black; stroke-opacity: 1; stroke-width: 0" />
	<polygon points="406.5,461.25 406.5,472.5 408,472.5 408,461.25 " style="fill: rgb(247,244,161); fill-opacity: 1; stroke: black; stroke-opacity: 1; stroke-width: 0" />
	<polygon points="408,461.25 408,472.5 409.5,472.5 409.5,461.25 " style="fill: rgb(246,244,157); fill-opacity: 1; stroke: black; stroke-opacity: 1; stroke-width: 0" />
	<polygon points="409.5,461.25 409.5,472.5 411,472.5 411,461.25 " style="fill: rgb(246,243,154); fill-opacity: 1; stroke: black; stroke-opacity: 1; stroke-width: 0" />
	<polygon points="411,461.25 411,472.5 412.5,472.5 412.5,461.25 " style="fill: rgb(246,243,150); fill-opacity: 1; stroke: black; stroke-opacity: 1; stroke-width: 0" />
	<polygon points="412.5,461.25 412.5,472.5 414,472.5 414,461.25 " style="fill: rgb(246,243,147); fill-opacity: 1; stroke: black; stroke-opacity: 1; stroke-width: 0" />
	<polygon points="414,461.25 414,472.5 415.5,472.5 415.5,461.25 " style="fill: rgb(245,242,143); fill-opacity: 1; stroke: black; stroke-opacity: 1; stroke-width: 0" />
	<polygon points="415.5,461.25 415.5,472.5 417,472.5 417,461.25 " style="fill: rgb(245,242,139); fill-opacity: 1; stroke: black; stroke-opacity: 1; stroke-width: 0" />
	<polygon points="417,461.25 417,472.5 418.5,472.5 418.5,461.25 " style="fill: rgb(245,241,136); fill-opacity: 1; stroke: black; stroke-opacity: 1; stroke-width: 0" />
	<polygon points="418.5,461.25 418.5,472.5 420,472.5 420,461.25 " style="fill: rgb(244,241,132); fill-opacity: 1; stroke: black; stroke-opacity: 1; stroke-width: 0" />
	<polygon points="420,461.25 420,472.5 421.5,472.5 421.5,461.25 " style="fill: rgb(244,241,129); fill-opacity: 1; stroke: black; stroke-opacity: 1; stroke-width: 0" />
	<polygon points="421.5,461.25 421.5,472.5 423,472.5 423,461.25 " style="fill: rgb(244,240,125); fill-opacity: 1; stroke: black; stroke-opacity: 1; stroke-width: 0" />
	<polygon points="423,461.25 423,472.5 424.5,472.5 424.5,461.25 " style="fill: rgb(243,240,121); fill-opacity: 1; stroke: black; stroke-opacity: 1; stroke-width: 0" />
	<polygon points="424.5,461.25 424.5,472.5 426,472.5 426,461.25 " style="fill: rgb(243,239,118); fill-opacity: 1; stroke: black; stroke-opacity: 1; stroke-width: 0" />
	<polygon points="426,461.25 426,472.5 427.5,472.5 427.5,461.25 " style="fill: rgb(243,239,114); fill-opacity: 1; stroke: black; stroke-opacity: 1; stroke-width: 0" />
	<polygon points="427.5,461.25 427.5,472.5 429,472.5 429,461.25 " style="fill: rgb(243,239,111); fill-opacity: 1; stroke: black; stroke-opacity: 1; stroke-width: 0" />
	<polygon points="429,461.25 429,472.5 430.5,472.5 430.5,461.25 " style="fill: rgb(242,238,107); fill-opacity: 1; stroke: black; stroke-opacity: 1; stroke-width: 0" />
	<polygon points="430.5,461.25 430.5,472.5 432,472.5 432,461.25 " style="fill: rgb(242,238,103); fill-opacity: 1; stroke: black; stroke-opacity: 1; stroke-width: 0" />
	<polygon points="432,461.25 432,472.5 433.5,472.5 433.5,461.25 " style="fill: rgb(242,237,100); fill-opacity: 1; stroke: black; stroke-opacity: 1; stroke-width: 0" />
	<polygon points="433.5,461.25 433.5,472.5 435,472.5 435,461.25 " style="fill: rgb(241,237,96); fill-opacity: 1; stroke: black; stroke-opacity: 1; stroke-width: 0" />
	<polygon points="435,461.25 435,472.5 436.5,472.5 436.5,461.25 " style="fill: rgb(241,237,93); fill-opacity: 1; stroke: black; stroke-opacity: 1; stroke-width: 0" />
	<polygon points="436.5,461.25 436.5,472.5 438,472.5 438,461.25 " style="fill: rgb(241,236,89); fill-opacity: 1; stroke: black; stroke-opacity: 1; stroke-width: 0" />
	<polygon points="438,461.25 438,472.5 439.5,472.5 439.5,461.25 " style="fill: rgb(240,236,85); fill-opacity: 1; stroke: black; stroke-opacity: 1; stroke-width: 0" />
	<polygon points="439.5,461.25 439.5,472.5 441,472.5 441,461.25 " style="fill: rgb(240,235,82); fill-opacity: 1; stroke: black; stroke-opacity: 1; stroke-width: 0" />
	<polygon points="441,461.25 441,472.5 442.5,472.5 442.5,461.25 " style="fill: rgb(240,235,78); fill-opacity: 1; stroke: black; stroke-opacity: 1; stroke-width: 0" />
	<polygon points="442.5,461.25 442.5,472.5 444,472.5 444,461.25 " style="fill: rgb(240,235,75); fill-opacity: 1; stroke: black; stroke-opacity: 1; stroke-width: 0" />
	<polygon points="444,461.25 444,472.5 445.5,472.5 445.5,461.25 " style="fill: rgb(240,230,73); fill-opacity: 1; stroke: black; stroke-opacity: 1; stroke-width: 0" />
	<polygon points="445.5,461.25 445.5,472.5 447,472.5 447,461.25 " style="fill: rgb(240,225,72); fill-opacity: 1; stroke: black; stroke-opacity: 1; stroke-width: 0" />
	<polygon points="447,461.25 447,472.5 448.5,472.5 448.5,461.25 " style="fill: rgb(240,220,70); fill-opacity: 1; stroke: black; stroke-opacity: 1; stroke-width: 0" />
	<polygon points="448.5,461.25 448.5,472.5 450,472.5 450,461.25 " style="fill: rgb(241,216,69); fill-opacity: 1; stroke: black; stroke-opacity: 1; stroke-width: 0" />
	<polygon points="450,461.25 450,472.5 451.5,472.5 451.5,461.25 " style="fill: rgb(241,211,67); fill-opacity: 1; stroke: black; stroke-opacity: 1; stroke-width: 0" />
	<polygon points="451.5,461.25 451.5,472.5 453,472.5 453,461.25 " style="fill: rgb(241,206,66); fill-opacity: 1; stroke: black; stroke-opacity: 1; stroke-width: 0" />
	<polygon points="453,461.25 453,472.5 454.5,472.5 454.5,461.25 " style="fill: rgb(242,202,64); fill-opacity: 1; stroke: black; stroke-opacity: 1; stroke-width: 0" />
	<polygon points="454.5,461.25 454.5,472.5 456,472.5 456,461.25 " style="fill: rgb(242,197,63); fill-opacity: 1; stroke: black; stroke-opacity: 1; stroke-width: 0" />
	<polygon points="456,461.25 456,472.5 457.5,472.5 457.5,461.25 " style="fill: rgb(242,192,61); fill-opacity: 1; stroke: black; stroke-opacity: 1; stroke-width: 0" />
	<polygon points="457.5,461.25 457.5,472.5 459,472.5 459,461.25 " style="fill: rgb(243,188,60); fill-opacity: 1; stroke: black; stroke-opacity: 1; stroke-width: 0" />
	<polygon points="459,461.25 459,472.5 460.5,472.5 460.5,461.25 " style="fill: rgb(243,183,58); fill-opacity: 1; stroke: black; stroke-opacity: 1; stroke-width: 0" />
	<polygon points="460.5,461.25 460.5,472.5 462,472.5 462,461.25 " style="fill: rgb(243,178,57); fill-opacity: 1; stroke: black; stroke-opacity: 1; stroke-width: 0" />
	<polygon points="462,461.25 462,472.5 463.5,472.5 463.5,461.25 " style="fill: rgb(243,173,55); fill-opacity: 1; stroke: black; stroke-opacity: 1; stroke-width: 0" />
	<polygon points="463.5,461.25 463.5,472.5 465,472.5 465,461.25 " style="fill: rgb(244,169,54); fill-opacity: 1; stroke: black; stroke-opacity: 1; stroke-width: 0" />
	<polygon points="465,461.25 465,472.5 466.5,472.5 466.5,461.25 " style="fill: rgb(244,164,52); fill-opacity: 1; stroke: black; stroke-opacity: 1; stroke-width: 0" />
	<polygon points="466.5,461.25 466.5,472.5 468,472.5 468,461.25 " style="fill: rgb(244,159,51); fill-opacity: 1; stroke: black; stroke-opacity: 1; stroke-width: 0" />
	<polygon points="468,461.25 468,472.5 469.5,472.5 469.5,461.25 " style="fill: rgb(245,155,49); fill-opacity: 1; stroke: black; stroke-opacity: 1; stroke-width: 0" />
	<polygon points="469.5,461.25 469.5,472.5 471,472.5 471,461.25 " style="fill: rgb(245,150,48); fill-opacity: 1; stroke: black; stroke-opacity: 1; stroke-width: 0" />
	<polygon points="471,461.25 471,472.5 472.5,472.5 472.5,461.25 " style="fill: rgb(245,145,46); fill-opacity: 1; stroke: black; stroke-opacity: 1; stroke-width: 0" />
	<polygon points="472.5,461.25 472.5,472.5 474,472.5 474,461.25 " style="fill: rgb(246,141,45); fill-opacity: 1; stroke: black; stroke-opacity: 1; stroke-width: 0" />
	<polygon points="474,461.25 474,472.5 475.5,472.5 475.5,461.25 " style="fill: rgb(246,136,43); fill-opacity: 1; stroke: black; stroke-opacity: 1; stroke-width: 0" />
	<polygon points="475.5,461.25 475.5,472.5 477,472.5 477,461.25 " style="fill: rgb(246,131,42); fill-opacity: 1; stroke: black; stroke-opacity: 1; stroke-width: 0" />
	<polygon points="477,461.25 477,472.5 478.5,472.5 478.5,461.25 " style="fill: rgb(246,126,40); fill-opacity: 1; stroke: black; stroke-opacity: 1; stroke-width: 0" />
	<polygon points="478.5,461.25 478.5,472.5 480,472.5 480,461.25 " style="fill: rgb(247,122,39); fill-opacity: 1; stroke: black; stroke-opacity: 1; stroke-width: 0" />
	<polygon points="480,461.25 480,472.5 481.5,472.5 481.5,461.25 " style="fill: rgb(247,117,37); fill-opacity: 1; stroke: black; stroke-opacity: 1; stroke-width: 0" />
	<polygon points="481.5,461.25 481.5,472.5 483,472.5 483,461.25 " style="fill: rgb(247,112,36); fill-opacity: 1; stroke: black; stroke-opacity: 1; stroke-width: 0" />
	<polygon points="483,461.25 483,472.5 484.5,472.5 484.5,461.25 " style="fill: rgb(248,108,34); fill-opacity: 1; stroke: black; stroke-opacity: 1; stroke-width: 0" />
	<polygon points="484.5,461.25 484.5,472.5 486,472.5 486,461.25 " style="fill: rgb(248,103,33); fill-opacity: 1; stroke: black; stroke-opacity: 1; stroke-width: 0" />
	<polygon points="486,461.25 486,472.5 487.5,472.5 487.5,461.25 " style="fill: rgb(248,98,31); fill-opacity: 1; stroke: black; stroke-opacity: 1; stroke-width: 0" />
	<polygon points="487.5,461.25 487.5,472.5 489,472.5 489,461.25 " style="fill: rgb(249,94,30); fill-opacity: 1; stroke: black; stroke-opacity: 1; stroke-width: 0" />
	<polygon points="489,461.25 489,472.5 490.5,472.5 490.5,461.25 " style="fill: rgb(249,89,28); fill-opacity: 1; stroke: black; stroke-opacity: 1; stroke-width: 0" />
	<polygon points="490.5,461.25 490.5,472.5 492,472.5 492,461.25 " style="fill: rgb(249,84,27); fill-opacity: 1; stroke: black; stroke-opacity: 1; stroke-width: 0" />
	<polygon points="492,461.25 492,472.5 493.5,472.5 493.5,461.25 " style="fill: rgb(249,79,25); fill-opacity: 1; stroke: black; stroke-opacity: 1; stroke-width: 0" />
	<polygon points="493.5,461.25 493.5,472.5 495,472.5 495,461.25 " style="fill: rgb(250,75,24); fill-opacity: 1; stroke: black; stroke-opacity: 1; stroke-width: 0" />
	<polygon points="495,461.25 495,472.5 496.5,472.5 496.5,461.25 " style="fill: rgb(250,70,22); fill-opacity: 1; stroke: black; stroke-opacity: 1; stroke-width: 0" />
	<polygon points="496.5,461.25 496.5,472.5 498,472.5 498,461.25 " style="fill: rgb(250,65,21); fill-opacity: 1; stroke: black; stroke-opacity: 1; stroke-width: 0" />
	<polygon points="498,461.25 498,472.5 499.5,472.5 499.5,461.25 " style="fill: rgb(251,61,19); fill-opacity: 1; stroke: black; stroke-opacity: 1; stroke-width: 0" />
	<polygon points="499.5,461.25 499.5,472.5 501,472.5 501,461.25 " style="fill: rgb(251,56,18); fill-opacity: 1; stroke: black; stroke-opacity: 1; stroke-width: 0" />
	<polygon points="501,461.25 501,472.5 502.5,472.5 502.5,461.25 " style="fill: rgb(251,51,16); fill-opacity: 1; stroke: black; stroke-opacity: 1; stroke-width: 0" />
	<polygon points="502.5,461.25 502.5,472.5 504,472.5 504,461.25 " style="fill: rgb(252,47,15); fill-opacity: 1; stroke: black; stroke-opacity: 1; stroke-width: 0" />
	<polygon points="504,461.25 504,472.5 505.5,472.5 505.5,461.25 " style="fill: rgb(252,42,13); fill-opacity: 1; stroke: black; stroke-opacity: 1; stroke-width: 0" />
	<polygon points="505.5,461.25 505.5,472.5 507,472.5 507,461.25 " style="fill: rgb(252,37,12); fill-opacity: 1; stroke: black; stroke-opacity: 1; stroke-width: 0" />
	<polygon points="507,461.25 507,472.5 508.5,472.5 508.5,461.25 " style="fill: rgb(252,32,10); fill-opacity: 1; stroke: black; stroke-opacity: 1; stroke-width: 0" />
	<polygon points="508.5,461.25 508.5,472.5 510,472.5 510,461.25 " style="fill: rgb(253,28,9); fill-opacity: 1; stroke: black; stroke-opacity: 1; stroke-width: 0" />
	<polygon points="510,461.25 510,472.5 511.5,472.5 511.5,461.25 " style="fill: rgb(253,23,7); fill-opacity: 1; stroke: black; stroke-opacity: 1; stroke-width: 0" />
	<polygon points="511.5,461.25 511.5,472.5 513,472.5 513,461.25 " style="fill: rgb(253,18,6); fill-opacity: 1; stroke: black; stroke-opacity: 1; stroke-width: 0" />
	<polygon points="513,461.25 513,472.5 514.5,472.5 514.5,461.25 " style="fill: rgb(254,14,4); fill-opacity: 1; stroke: black; stroke-opacity: 1; stroke-width: 0" />
	<polygon points="514.5,461.25 514.5,472.5 516,472.5 516,461.25 " style="fill: rgb(254,9,3); fill-opacity: 1; stroke: black; stroke-opacity: 1; stroke-width: 0" />
	<polygon points="516,461.25 516,472.5 517.5,472.5 517.5,461.25 " style="fill: rgb(254,4,1); fill-opacity: 1; stroke: black; stroke-opacity: 1; stroke-width: 0" />
	<polygon points="517.5,461.25 517.5,472.5 519,472.5 519,461.25 " style="fill: rgb(255,0,0); fill-opacity: 1; stroke: black; stroke-opacity: 1; stroke-width: 0" />
	<line stroke="green" stroke-width="1" x1="67.5" x2="67.5" y1="165.5" y2="181.5" />
	<line stroke="grey" stroke-width="1" x1="67.5" x2="67.5" y1="147.5" y2="165.5" />
	<polygon points="92.5,252.5 67.5,277.5 92.5,302.5 117.5,277.5 " style="fill: rgb(243,188,60); fill-opacity: 1; stroke: white; stroke-opacity: 1; stroke-width: 1" />
	<polygon points="117.5,277.5 92.5,302.5 117.5,327.5 142.5,302.5 " style="fill: rgb(242,197,63); fill-opacity: 1; stroke: white; stroke-opacity: 1; stroke-width: 1" />
	<polygon points="142.5,302.5 117.5,327.5 142.5,352.5 167.5,327.5 " style="fill: rgb(247,244,161); fill-opacity: 1; stroke: white; stroke-opacity: 1; stroke-width: 1" />
	<polygon points="167.5,327.5 142.5,352.5 167.5,377.5 192.5,352.5 " style="fill: rgb(253,253,237); fill-opacity: 1; stroke: white; stroke-opacity: 1; stroke-width: 1" />
	<polygon points="192.5,352.5 167.5,377.5 192.5,402.5 217.5,377.5 " style="fill: rgb(252,251,222); fill-opacity: 1; stroke: white; stroke-opacity: 1; stroke-width: 1" />
	<polygon points="217.5,377.5 192.5,402.5 217.5,427.5 242.5,402.5 " style="fill: rgb(253,253,237); fill-opacity: 1; stroke: white; stroke-opacity: 1; stroke-width: 1" />
	<polygon points="242.5,402.5 217.5,427.5 242.5,452.5 267.5,427.5 " style="fill: rgb(246,243,150); fill-opacity: 1; stroke: white; stroke-opacity: 1; stroke-width: 1" />
	<polygon points="267.5,427.5 242.5,452.5 267.5,477.5 292.5,452.5 " style="fill: rgb(248,246,175); fill-opacity: 1; stroke: white; stroke-opacity: 1; stroke-width: 1" />
	<line stroke="green" stroke-width="1" x1="67.5039967864918" x2="117.5" y1="165.5" y2="181.5" />
	<line stroke="grey" stroke-width="1" x1="67.5039967864918" x2="67.5039967864918" y1="147.5" y2="165.5" />
	<polygon points="142.5,252.5 117.5,277.5 142.5,302.5 167.5,277.5 " style="fill: rgb(253,23,7); fill-opacity: 1; stroke: white; stroke-opacity: 1; stroke-width: 1" />
	<polygon points="167.5,277.5 142.5,302.5 167.5,327.5 192.5,302.5 " style="fill: rgb(245,242,139); fill-opacity: 1; stroke: white; stroke-opacity: 1; stroke-width: 1" />
	<polygon points="192.5,302.5 167.5,327.5 192.5,352.5 217.5,327.5 " style="fill: rgb(248,246,179); fill-opacity: 1; stroke: white; stroke-opacity: 1; stroke-width: 1" />
	<polygon points="217.5,327.5 192.5,352.5 217.5,377.5 242.5,352.5 " style="fill: rgb(249,247,186); fill-opacity: 1; stroke: white; stroke-opacity: 1; stroke-width: 1" />
	<polygon points="242.5,352.5 217.5,377.5 242.5,402.5 267.5,377.5 " style="fill: rgb(249,247,186); fill-opacity: 1; stroke: white; stroke-opacity: 1; stroke-width: 1" />
	<polygon points="267.5,377.5 242.5,402.5 267.5,427.5 292.5,402.5 " style="fill: rgb(250,248,197); fill-opacity: 1; stroke: white; stroke-opacity: 1; stroke-width: 1" />
	<polygon points="292.5,402.5 267.5,427.5 292.5,452.5 317.5,427.5 " style="fill: rgb(253,252,233); fill-opacity: 1; stroke: white; stroke-opacity: 1; stroke-width: 1" />
	<line stroke="green" stroke-width="1" x1="67.5043183670141" x2="167.5" y1="165.5" y2="181.5" />
	<line stroke="grey" stroke-width="1" x1="67.5043183670141" x2="67.5043183670141" y1="147.5" y2="165.5" />
	<polygon points="192.5,252.5 167.5,277.5 192.5,302.5 217.5,277.5 " style="fill: rgb(245,242,139); fill-opacity: 1; stroke: white; stroke-opacity: 1; stroke-width: 1" />
	<polygon points="217.5,277.5 192.5,302.5 217.5,327.5 242.5,302.5 " style="fill: rgb(248,246,175); fill-opacity: 1; stroke: white; stroke-opacity: 1; stroke-width: 1" />
	<polygon points="242.5,302.5 217.5,327.5 242.5,352.5 267.5,327.5 " style="fill: rgb(247,245,168); fill-opacity: 1; stroke: white; stroke-opacity: 1; stroke-width: 1" />
	<polygon points="267.5,327.5 242.5,352.5 267.5,377.5 292.5,352.5 " style="fill: rgb(248,245,172); fill-opacity: 1; stroke: white; stroke-opacity: 1; stroke-width: 1" />
	<polygon points="292.5,352.5 267.5,377.5 292.5,402.5 317.5,377.5 " style="fill: rgb(250,248,197); fill-opacity: 1; stroke: white; stroke-opacity: 1; stroke-width: 1" />
	<polygon points="317.5,377.5 292.5,402.5 317.5,427.5 342.5,402.5 " style="fill: rgb(253,253,237); fill-opacity: 1; stroke: white; stroke-opacity: 1; stroke-width: 1" />
	<line stroke="green" stroke-width="1" x1="129.554865082615" x2="217.5" y1="165.5" y2="181.5" />
	<line stroke="grey" stroke-width="1" x1="129.554865082615" x2="129.554865082615" y1="147.5" y2="165.5" />
	<polygon points="242.5,252.5 217.5,277.5 242.5,302.5 267.5,277.5 " style="fill: rgb(242,237,100); fill-opacity: 1; stroke: white; stroke-opacity: 1; stroke-width: 1" />
	<polygon points="267.5,277.5 242.5,302.5 267.5,327.5 292.5,302.5 " style="fill: rgb(246,243,154); fill-opacity: 1; stroke: white; stroke-opacity: 1; stroke-width: 1" />
	<polygon points="292.5,302.5 267.5,327.5 292.5,352.5 317.5,327.5 " style="fill: rgb(247,245,168); fill-opacity: 1; stroke: white; stroke-opacity: 1; stroke-width: 1" />
	<polygon points="317.5,327.5 292.5,352.5 317.5,377.5 342.5,352.5 " style="fill: rgb(249,247,183); fill-opacity: 1; stroke: white; stroke-opacity: 1; stroke-width: 1" />
	<polygon points="342.5,352.5 317.5,377.5 342.5,402.5 367.5,377.5 " style="fill: rgb(248,245,172); fill-opacity: 1; stroke: white; stroke-opacity: 1; stroke-width: 1" />
	<line stroke="green" stroke-width="1" x1="154.038903490814" x2="267.5" y1="165.5" y2="181.5" />
	<line stroke="grey" stroke-width="1" x1="154.038903490814" x2="154.038903490814" y1="147.5" y2="165.5" />
	<polygon points="292.5,252.5 267.5,277.5 292.5,302.5 317.5,277.5 " style="fill: rgb(243,239,111); fill-opacity: 1; stroke: white; stroke-opacity: 1; stroke-width: 1" />
	<polygon points="317.5,277.5 292.5,302.5 317.5,327.5 342.5,302.5 " style="fill: rgb(245,242,143); fill-opacity: 1; stroke: white; stroke-opacity: 1; stroke-width: 1" />
	<polygon points="342.5,302.5 317.5,327.5 342.5,352.5 367.5,327.5 " style="fill: rgb(251,250,211); fill-opacity: 1; stroke: white; stroke-opacity: 1; stroke-width: 1" />
	<polygon points="367.5,327.5 342.5,352.5 367.5,377.5 392.5,352.5 " style="fill: rgb(251,250,211); fill-opacity: 1; stroke: white; stroke-opacity: 1; stroke-width: 1" />
	<line stroke="green" stroke-width="1" x1="250.035191532785" x2="317.5" y1="165.5" y2="181.5" />
	<line stroke="grey" stroke-width="1" x1="250.035191532785" x2="250.035191532785" y1="147.5" y2="165.5" />
	<polygon points="342.5,252.5 317.5,277.5 342.5,302.5 367.5,277.5 " style="fill: rgb(253,23,7); fill-opacity: 1; stroke: white; stroke-opacity: 1; stroke-width: 1" />
	<polygon points="367.5,277.5 342.5,302.5 367.5,327.5 392.5,302.5 " style="fill: rgb(248,246,179); fill-opacity: 1; stroke: white; stroke-opacity: 1; stroke-width: 1" />
	<polygon points="392.5,302.5 367.5,327.5 392.5,352.5 417.5,327.5 " style="fill: rgb(251,250,211); fill-opacity: 1; stroke: white; stroke-opacity: 1; stroke-width: 1" />
	<line stroke="green" stroke-width="1" x1="250.035995484091" x2="367.5" y1="165.5" y2="181.5" />
	<line stroke="grey" stroke-width="1" x1="250.035995484091" x2="250.035995484091" y1="147.5" y2="165.5" />
	<polygon points="392.5,252.5 367.5,277.5 392.5,302.5 417.5,277.5 " style="fill: rgb(247,244,161); fill-opacity: 1; stroke: white; stroke-opacity: 1; stroke-width: 1" />
	<polygon points="417.5,277.5 392.5,302.5 417.5,327.5 442.5,302.5 " style="fill: rgb(250,249,201); fill-opacity: 1; stroke: white; stroke-opacity: 1; stroke-width: 1" />
	<line stroke="green" stroke-width="1" x1="467.343895626447" x2="417.5" y1="165.5" y2="181.5" />
	<line stroke="grey" stroke-width="1" x1="467.343895626447" x2="467.343895626447" y1="147.5" y2="165.5" />
	<polygon points="442.5,252.5 417.5,277.5 442.5,302.5 467.5,277.5 " style="fill: rgb(249,79,25); fill-opacity: 1; stroke: white; stroke-opacity: 1; stroke-width: 1" />
	<line stroke="green" stroke-width="1" x1="467.5" x2="467.5" y1="165.5" y2="181.5" />
	<line stroke="grey" stroke-width="1" x1="467.5" x2="467.5" y1="147.5" y2="165.5" />
	<polygon points="117.5,277.5 142.5,302.5 167.5,277.5 " style="fill: none; fill-opacity: 1; stroke: black; stroke-opacity: 1; stroke-width: 1" />
	<line stroke="rgb(231,138,195)" stroke-width="1" x1="67.5039967864918" x2="67.5039967864918" y1="147.5" y2="165.5" />
	<line stroke="rgb(231,138,195)" stroke-width="1" x1="67.5043183670141" x2="67.5043183670141" y1="147.5" y2="165.5" />
	<polygon points="317.5,277.5 342.5,302.5 367.5,277.5 " style="fill: none; fill-opacity: 1; stroke: black; stroke-opacity: 1; stroke-width: 1" />
	<line stroke="rgb(231,138,195)" stroke-width="1" x1="250.035191532785" x2="250.035191532785" y1="147.5" y2="165.5" />
	<line stroke="rgb(231,138,195)" stroke-width="1" x1="250.035995484091" x2="250.035995484091" y1="147.5" y2="165.5" />
	<text fill="grey" font-family="Arial" font-size="12" x="84.38" y="283.50">0.60</text>
	<text fill="grey" font-family="Arial" font-size="12" x="109.38" y="308.50">0.58</text>
	<text fill="grey" font-family="Arial" font-size="12" x="134.38" y="333.50">0.27</text>
	<text fill="grey" font-family="Arial" font-size="12" x="159.38" y="358.50">0.05</text>
	<text fill="grey" font-family="Arial" font-size="12" x="184.38" y="383.50">0.09</text>
	<text fill="grey" font-family="Arial" font-size="12" x="209.38" y="408.50">0.06</text>
	<text fill="grey" font-family="Arial" font-size="12" x="234.38" y="433.50">0.30</text>
	<text fill="grey" font-family="Arial" font-size="12" x="259.38" y="458.50">0.22</text>
	<text fill="grey" font-family="Arial" font-size="12" x="134.38" y="283.50">0.96</text>
	<text fill="grey" font-family="Arial" font-size="12" x="159.38" y="308.50">0.33</text>
	<text fill="grey" font-family="Arial" font-size="12" x="184.38" y="333.50">0.21</text>
	<text fill="grey" font-family="Arial" font-size="12" x="209.38" y="358.50">0.20</text>
	<text fill="grey" font-family="Arial" font-size="12" x="234.38" y="383.50">0.19</text>
	<text fill="grey" font-family="Arial" font-size="12" x="259.38" y="408.50">0.17</text>
	<text fill="grey" font-family="Arial" font-size="12" x="284.38" y="433.50">0.06</text>
	<text fill="grey" font-family="Arial" font-size="12" x="184.38" y="283.50">0.33</text>
	<text fill="grey" font-family="Arial" font-size="12" x="209.38" y="308.50">0.23</text>
	<text fill="grey" font-family="Arial" font-size="12" x="234.38" y="333.50">0.24</text>
	<text fill="grey" font-family="Arial" font-size="12" x="259.38" y="358.50">0.24</text>
	<text fill="grey" font-family="Arial" font-size="12" x="284.38" y="383.50">0.17</text>
	<text fill="grey" font-family="Arial" font-size="12" x="309.38" y="408.50">0.05</text>
	<text fill="grey" font-family="Arial" font-size="12" x="234.38" y="283.50">0.44</text>
	<text fill="grey" font-family="Arial" font-size="12" x="259.38" y="308.50">0.29</text>
	<text fill="grey" font-family="Arial" font-size="12" x="284.38" y="333.50">0.25</text>
	<text fill="grey" font-family="Arial" font-size="12" x="309.38" y="358.50">0.21</text>
	<text fill="grey" font-family="Arial" font-size="12" x="334.38" y="383.50">0.23</text>
	<text fill="grey" font-family="Arial" font-size="12" x="284.38" y="283.50">0.41</text>
	<text fill="grey" font-family="Arial" font-size="12" x="309.38" y="308.50">0.31</text>
	<text fill="grey" font-family="Arial" font-size="12" x="334.38" y="333.50">0.12</text>
	<text fill="grey" font-family="Arial" font-size="12" x="359.38" y="358.50">0.12</text>
	<text fill="grey" font-family="Arial" font-size="12" x="334.38" y="283.50">0.95</text>
	<text fill="grey" font-family="Arial" font-size="12" x="359.38" y="308.50">0.22</text>
	<text fill="grey" font-family="Arial" font-size="12" x="384.38" y="333.50">0.12</text>
	<text fill="grey" font-family="Arial" font-size="12" x="384.38" y="283.50">0.26</text>
	<text fill="grey" font-family="Arial" font-size="12" x="409.38" y="308.50">0.15</text>
	<text fill="grey" font-family="Arial" font-size="12" x="434.38" y="283.50">0.83</text>
	<!-- 
	Generated using the Perl SVG Module V2.78
	by Ronan Oger
	Info: http://www.roitsystems.com/
 -->
</svg>